<mxfile host="Electron" modified="2023-10-24T17:33:45.682Z" agent="Mozilla/5.0 (X11; Linux x86_64) AppleWebKit/537.36 (KHTML, like Gecko) draw.io/22.0.3 Chrome/114.0.5735.289 Electron/25.8.4 Safari/537.36" etag="7BmQCCta144J5i6KZV2S" version="22.0.3" type="device">
  <diagram id="C5RBs43oDa-KdzZeNtuy" name="Page-1">
    <mxGraphModel dx="2353" dy="1415" grid="1" gridSize="10" guides="1" tooltips="1" connect="1" arrows="1" fold="1" page="1" pageScale="1" pageWidth="827" pageHeight="1169" math="0" shadow="0">
      <root>
        <mxCell id="WIyWlLk6GJQsqaUBKTNV-0" />
        <mxCell id="WIyWlLk6GJQsqaUBKTNV-1" parent="WIyWlLk6GJQsqaUBKTNV-0" />
        <mxCell id="WIyWlLk6GJQsqaUBKTNV-2" value="" style="rounded=0;html=1;jettySize=auto;orthogonalLoop=1;fontSize=11;endArrow=block;endFill=0;endSize=8;strokeWidth=1;shadow=0;labelBackgroundColor=none;edgeStyle=orthogonalEdgeStyle;entryX=0.5;entryY=0;entryDx=0;entryDy=0;" parent="WIyWlLk6GJQsqaUBKTNV-1" source="WIyWlLk6GJQsqaUBKTNV-3" target="LGGzUGPLqH4TGAAvTcvt-3" edge="1">
          <mxGeometry relative="1" as="geometry">
            <mxPoint x="268.99999999999955" y="195" as="targetPoint" />
          </mxGeometry>
        </mxCell>
        <mxCell id="WIyWlLk6GJQsqaUBKTNV-3" value="ECoG Data Collection" style="rounded=1;whiteSpace=wrap;html=1;fontSize=12;glass=0;strokeWidth=1;shadow=0;" parent="WIyWlLk6GJQsqaUBKTNV-1" vertex="1">
          <mxGeometry x="189" y="95" width="140" height="40" as="geometry" />
        </mxCell>
        <mxCell id="LGGzUGPLqH4TGAAvTcvt-0" value="&lt;font style=&quot;font-size: 10px;&quot;&gt;Visual&lt;br&gt;Auditory&lt;br&gt;Thoughts&lt;/font&gt;" style="whiteSpace=wrap;html=1;rounded=1;arcSize=50;align=center;verticalAlign=middle;strokeWidth=1;autosize=1;spacing=4;treeFolding=1;treeMoving=1;newEdgeStyle={&quot;edgeStyle&quot;:&quot;entityRelationEdgeStyle&quot;,&quot;startArrow&quot;:&quot;none&quot;,&quot;endArrow&quot;:&quot;none&quot;,&quot;segment&quot;:10,&quot;curved&quot;:1,&quot;sourcePerimeterSpacing&quot;:0,&quot;targetPerimeterSpacing&quot;:0};" vertex="1" parent="WIyWlLk6GJQsqaUBKTNV-1">
          <mxGeometry x="418" y="70" width="81" height="65" as="geometry" />
        </mxCell>
        <mxCell id="LGGzUGPLqH4TGAAvTcvt-1" value="" style="edgeStyle=entityRelationEdgeStyle;startArrow=none;endArrow=none;segment=10;curved=1;sourcePerimeterSpacing=0;targetPerimeterSpacing=0;rounded=0;" edge="1" target="LGGzUGPLqH4TGAAvTcvt-0" parent="WIyWlLk6GJQsqaUBKTNV-1">
          <mxGeometry relative="1" as="geometry">
            <mxPoint x="329" y="127" as="sourcePoint" />
          </mxGeometry>
        </mxCell>
        <mxCell id="LGGzUGPLqH4TGAAvTcvt-2" value="" style="rounded=0;html=1;jettySize=auto;orthogonalLoop=1;fontSize=11;endArrow=block;endFill=0;endSize=8;strokeWidth=1;shadow=0;labelBackgroundColor=none;edgeStyle=orthogonalEdgeStyle;entryX=0.5;entryY=0;entryDx=0;entryDy=0;" edge="1" parent="WIyWlLk6GJQsqaUBKTNV-1" source="LGGzUGPLqH4TGAAvTcvt-3" target="LGGzUGPLqH4TGAAvTcvt-5">
          <mxGeometry relative="1" as="geometry">
            <mxPoint x="268.99999999999955" y="275" as="targetPoint" />
          </mxGeometry>
        </mxCell>
        <mxCell id="LGGzUGPLqH4TGAAvTcvt-3" value="ECoG Data Analysis" style="rounded=1;whiteSpace=wrap;html=1;fontSize=12;glass=0;strokeWidth=1;shadow=0;" vertex="1" parent="WIyWlLk6GJQsqaUBKTNV-1">
          <mxGeometry x="189" y="185" width="140" height="40" as="geometry" />
        </mxCell>
        <mxCell id="LGGzUGPLqH4TGAAvTcvt-4" value="" style="rounded=0;html=1;jettySize=auto;orthogonalLoop=1;fontSize=11;endArrow=block;endFill=0;endSize=8;strokeWidth=1;shadow=0;labelBackgroundColor=none;edgeStyle=orthogonalEdgeStyle;entryX=0.5;entryY=0;entryDx=0;entryDy=0;" edge="1" parent="WIyWlLk6GJQsqaUBKTNV-1" source="LGGzUGPLqH4TGAAvTcvt-5" target="LGGzUGPLqH4TGAAvTcvt-7">
          <mxGeometry relative="1" as="geometry">
            <mxPoint x="268.99999999999955" y="365" as="targetPoint" />
          </mxGeometry>
        </mxCell>
        <mxCell id="LGGzUGPLqH4TGAAvTcvt-5" value="Design Stimulation Protocols" style="rounded=1;whiteSpace=wrap;html=1;fontSize=12;glass=0;strokeWidth=1;shadow=0;" vertex="1" parent="WIyWlLk6GJQsqaUBKTNV-1">
          <mxGeometry x="189" y="275" width="140" height="40" as="geometry" />
        </mxCell>
        <mxCell id="LGGzUGPLqH4TGAAvTcvt-6" value="" style="rounded=0;html=1;jettySize=auto;orthogonalLoop=1;fontSize=11;endArrow=block;endFill=0;endSize=8;strokeWidth=1;shadow=0;labelBackgroundColor=none;edgeStyle=orthogonalEdgeStyle;entryX=0.5;entryY=0;entryDx=0;entryDy=0;" edge="1" parent="WIyWlLk6GJQsqaUBKTNV-1" source="LGGzUGPLqH4TGAAvTcvt-7" target="LGGzUGPLqH4TGAAvTcvt-11">
          <mxGeometry relative="1" as="geometry">
            <mxPoint x="268.99999999999955" y="455" as="targetPoint" />
          </mxGeometry>
        </mxCell>
        <mxCell id="LGGzUGPLqH4TGAAvTcvt-7" value="Organoid Transplant and BCI Implant in Baby Rat" style="rounded=1;whiteSpace=wrap;html=1;fontSize=12;glass=0;strokeWidth=1;shadow=0;" vertex="1" parent="WIyWlLk6GJQsqaUBKTNV-1">
          <mxGeometry x="169" y="365" width="180" height="50" as="geometry" />
        </mxCell>
        <mxCell id="LGGzUGPLqH4TGAAvTcvt-10" value="" style="rounded=0;html=1;jettySize=auto;orthogonalLoop=1;fontSize=11;endArrow=block;endFill=0;endSize=8;strokeWidth=1;shadow=0;labelBackgroundColor=none;edgeStyle=orthogonalEdgeStyle;entryX=0.5;entryY=0;entryDx=0;entryDy=0;" edge="1" parent="WIyWlLk6GJQsqaUBKTNV-1" source="LGGzUGPLqH4TGAAvTcvt-11" target="LGGzUGPLqH4TGAAvTcvt-16">
          <mxGeometry relative="1" as="geometry">
            <mxPoint x="268.99999999999955" y="545" as="targetPoint" />
          </mxGeometry>
        </mxCell>
        <mxCell id="LGGzUGPLqH4TGAAvTcvt-11" value="Stimulation and Reinforcement" style="rounded=1;whiteSpace=wrap;html=1;fontSize=12;glass=0;strokeWidth=1;shadow=0;" vertex="1" parent="WIyWlLk6GJQsqaUBKTNV-1">
          <mxGeometry x="189" y="455" width="140" height="40" as="geometry" />
        </mxCell>
        <mxCell id="LGGzUGPLqH4TGAAvTcvt-12" value="&lt;h1&gt;Synthetic Intelligence: Human Brain Rat&lt;/h1&gt;&lt;p&gt;V0.9&lt;/p&gt;&lt;p&gt;Bidirectional System for AI-Rat Synergetic Adaptation and Improvement&lt;/p&gt;&lt;p&gt;Purpose: Play and learn DOOM&lt;/p&gt;&lt;p&gt;&lt;br&gt;&lt;/p&gt;" style="text;html=1;strokeColor=none;fillColor=none;spacing=5;spacingTop=-20;whiteSpace=wrap;overflow=hidden;rounded=0;" vertex="1" parent="WIyWlLk6GJQsqaUBKTNV-1">
          <mxGeometry x="20" y="970" width="270" height="180" as="geometry" />
        </mxCell>
        <mxCell id="LGGzUGPLqH4TGAAvTcvt-13" value="" style="rounded=0;html=1;jettySize=auto;orthogonalLoop=1;fontSize=11;endArrow=block;endFill=0;endSize=8;strokeWidth=1;shadow=0;labelBackgroundColor=none;edgeStyle=orthogonalEdgeStyle;entryX=1;entryY=0.5;entryDx=0;entryDy=0;exitX=0.5;exitY=1;exitDx=0;exitDy=0;" edge="1" parent="WIyWlLk6GJQsqaUBKTNV-1" source="LGGzUGPLqH4TGAAvTcvt-14" target="LGGzUGPLqH4TGAAvTcvt-7">
          <mxGeometry relative="1" as="geometry">
            <mxPoint x="439" y="395" as="targetPoint" />
          </mxGeometry>
        </mxCell>
        <mxCell id="LGGzUGPLqH4TGAAvTcvt-14" value="Grow Human Cortical Organoids" style="rounded=1;whiteSpace=wrap;html=1;fontSize=12;glass=0;strokeWidth=1;shadow=0;" vertex="1" parent="WIyWlLk6GJQsqaUBKTNV-1">
          <mxGeometry x="418" y="285" width="141" height="40" as="geometry" />
        </mxCell>
        <mxCell id="LGGzUGPLqH4TGAAvTcvt-15" value="" style="rounded=0;html=1;jettySize=auto;orthogonalLoop=1;fontSize=11;endArrow=block;endFill=0;endSize=8;strokeWidth=1;shadow=0;labelBackgroundColor=none;edgeStyle=orthogonalEdgeStyle;entryX=0.5;entryY=0;entryDx=0;entryDy=0;" edge="1" parent="WIyWlLk6GJQsqaUBKTNV-1" source="LGGzUGPLqH4TGAAvTcvt-16" target="LGGzUGPLqH4TGAAvTcvt-18">
          <mxGeometry relative="1" as="geometry">
            <mxPoint x="268.99999999999955" y="635" as="targetPoint" />
            <Array as="points">
              <mxPoint x="259" y="605" />
              <mxPoint x="259" y="605" />
            </Array>
          </mxGeometry>
        </mxCell>
        <mxCell id="LGGzUGPLqH4TGAAvTcvt-16" value="Analysis of Rat ECoG/BCI data" style="rounded=1;whiteSpace=wrap;html=1;fontSize=12;glass=0;strokeWidth=1;shadow=0;" vertex="1" parent="WIyWlLk6GJQsqaUBKTNV-1">
          <mxGeometry x="189" y="545" width="140" height="40" as="geometry" />
        </mxCell>
        <mxCell id="LGGzUGPLqH4TGAAvTcvt-18" value="Development of BCI AI" style="rounded=1;whiteSpace=wrap;html=1;fontSize=12;glass=0;strokeWidth=1;shadow=0;" vertex="1" parent="WIyWlLk6GJQsqaUBKTNV-1">
          <mxGeometry x="189" y="635" width="140" height="40" as="geometry" />
        </mxCell>
        <mxCell id="LGGzUGPLqH4TGAAvTcvt-19" value="&lt;font style=&quot;font-size: 10px;&quot;&gt;Features, Mappings, Dynamics, Events, etc.&lt;/font&gt;" style="whiteSpace=wrap;html=1;rounded=1;arcSize=50;align=center;verticalAlign=middle;strokeWidth=1;autosize=1;spacing=4;treeFolding=1;treeMoving=1;newEdgeStyle={&quot;edgeStyle&quot;:&quot;entityRelationEdgeStyle&quot;,&quot;startArrow&quot;:&quot;none&quot;,&quot;endArrow&quot;:&quot;none&quot;,&quot;segment&quot;:10,&quot;curved&quot;:1,&quot;sourcePerimeterSpacing&quot;:0,&quot;targetPerimeterSpacing&quot;:0};" vertex="1" parent="WIyWlLk6GJQsqaUBKTNV-1">
          <mxGeometry x="418" y="525" width="240" height="30" as="geometry" />
        </mxCell>
        <mxCell id="LGGzUGPLqH4TGAAvTcvt-20" value="" style="edgeStyle=entityRelationEdgeStyle;startArrow=none;endArrow=none;segment=10;curved=1;sourcePerimeterSpacing=0;targetPerimeterSpacing=0;rounded=0;" edge="1" parent="WIyWlLk6GJQsqaUBKTNV-1" target="LGGzUGPLqH4TGAAvTcvt-19" source="LGGzUGPLqH4TGAAvTcvt-16">
          <mxGeometry relative="1" as="geometry">
            <mxPoint x="379" y="562" as="sourcePoint" />
          </mxGeometry>
        </mxCell>
        <mxCell id="LGGzUGPLqH4TGAAvTcvt-21" value="" style="rounded=0;html=1;jettySize=auto;orthogonalLoop=1;fontSize=11;endArrow=block;endFill=0;endSize=8;strokeWidth=1;shadow=0;labelBackgroundColor=none;edgeStyle=orthogonalEdgeStyle;entryX=0.5;entryY=0;entryDx=0;entryDy=0;" edge="1" parent="WIyWlLk6GJQsqaUBKTNV-1" target="LGGzUGPLqH4TGAAvTcvt-22">
          <mxGeometry relative="1" as="geometry">
            <mxPoint x="259" y="775" as="targetPoint" />
            <mxPoint x="259" y="675" as="sourcePoint" />
            <Array as="points" />
          </mxGeometry>
        </mxCell>
        <mxCell id="LGGzUGPLqH4TGAAvTcvt-22" value="V1.0" style="rounded=0;whiteSpace=wrap;html=1;" vertex="1" parent="WIyWlLk6GJQsqaUBKTNV-1">
          <mxGeometry x="199" y="745" width="120" height="60" as="geometry" />
        </mxCell>
      </root>
    </mxGraphModel>
  </diagram>
</mxfile>
